<svg xmlns="http://www.w3.org/2000/svg" width="2769" height="970"><g fill="#222"><path d="M0 802h1262v141H0V802ZM1483 387h242l23 2 7.484 1.113 3.172.585 3.094.615 3.426.662 1.729.34 1.712.341 3.296.684 3.087.66 2.704.59 2.491.566 2.382.572 2.298.584 2.271.612 2.26.646 2.262.685L1794 399l2.504.839 2.59.903 2.627.95 2.654.995 2.65 1.032 2.655 1.066 2.663 1.098L1815 407l2.634 1.113 2.624 1.133 2.624 1.172 2.618 1.207 2.6 1.237 2.607 1.294 2.62 1.364L1836 417l2.802 1.684a49210 49210 0 0 0 2.835 1.785l2.798 1.818 2.753 1.838 2.697 1.842 2.572 1.79 2.413 1.713L1857 431l1.642 1.179 1.37 1 2.363 1.821 2.176 1.824L1867 439l1.708 1.514 1.897 1.693c.648.585 1.295 1.17 1.961 1.774.66.604 1.318 1.209 1.996 1.832l1.97 1.839 1.917 1.828 1.853 1.807L1882 453l1.405 1.514 1.24 1.412 1.15 1.364 1.08 1.335 2.09 2.688L1891 464l1.083 1.363 1.108 1.387 1.12 1.42 1.127 1.455 1.114 1.48 1.124 1.54 1.143 1.615L1900 476l1.255 1.947 1.288 2.065 1.292 2.124c.425.719.851 1.437 1.29 2.176l1.28 2.214 1.251 2.208 1.211 2.186L1910 493l.992 1.838.914 1.74.875 1.735.844 1.75.828 1.795.828 1.892.836 2.012L1917 508l.992 2.637 1.04 2.863 1.047 2.986 1.046 3.077 1.022 3.1.994 3.118.959 3.13.9 3.089.807 2.988.74 2.918.69 2.885.638 2.771.579 2.516.538 2.488.505 2.61L1930 554l.562 3.186.278 1.727.27 1.814.256 1.886.237 1.994.216 2.115L1932 569l.128 2.514.093 2.67.069 2.78.046 2.868.03 2.91.015 2.968v3.023l-.006 3.08-.003 3.156-.008 3.18-.021 3.159-.034 3.126-.05 3.086-.068 2.987-.085 2.857L1932 616l-.134 2.269c-.05.673-.102 1.346-.155 2.04l-.173 1.893-.19 1.77-.426 3.33-.485 3.073-.535 3.005-.586 2.917-.636 2.83L1928 642l-.715 3.092-.758 3.174-.803 3.184-.849 3.175-.892 3.109-.94 3.086-.99 3.083L1921 667l-1.134 3.151-1.19 3.154-1.228 3.118-1.26 3.077-1.289 3.026-1.301 2.943-1.308 2.843L1911 691l-1.231 2.438-1.21 2.28c-.6 1.081-.6 1.081-1.214 2.183l-1.22 2.099-1.238 2.044-1.262 2.003c-.425.65-.85 1.3-1.29 1.97-.44.655-.88 1.309-1.335 1.983l-1.414 2.06-1.461 2.08-1.49 2.067-1.51 2.043-1.514 1.996-1.525 1.957-1.536 1.92L1889 724l-1.573 1.83-1.575 1.78c-.515.567-1.029 1.136-1.558 1.721L1882.75 731l-1.542 1.63-1.493 1.558-1.426 1.472L1877 737l-1.934 2.125-1.754 1.875-1.894 1.855L1869 745l-1.705 1.42-1.932 1.568-2.066 1.638-2.172 1.687-2.22 1.688-2.268 1.687-2.315 1.68L1852 758l-2.279 1.531-2.264 1.469-2.258 1.425-2.262 1.388-2.292 1.372-2.274 1.33-2.235 1.28L1834 769l-1.93 1.088-1.847 1.021-1.85.99-1.873.963-1.93.949-2.03.958-2.16.98L1818 777l-2.747 1.2-2.98 1.269-3.136 1.292-1.62.652-1.642.65-1.652.643-1.671.638-1.696.632-1.72.626-1.743.619-1.77.608-1.796.595L1792 787l-1.87.549-1.897.528-1.914.512-1.924.497-1.927.483-1.93.47-1.927.455-1.924.443-1.917.436-1.905.423-1.885.408-1.863.394-1.84.378-1.805.36-1.765.343L1762 794l-3.19.566-2.99.493-2.846.435-2.661.381-2.406.328-2.294.29-2.135.239L1741 797l-2.435.261-2.604.258-2.935.263L1730 798l-2.866.106-2.899.052-3.022.03-3.202.017-1.73.015-1.788.016-1.823.015-1.853.015-1.876.013-1.883.013-1.88.012-1.846.012-3.475.028-3.461.029-7.377.059-18.207.13L1613 799l-1 158h-129V387Zm128 113v186l1 1a46173.23 46173.23 0 0 0 7.713.032l2.49.01 2.624.01 2.767.01 2.847.008 2.855.008 2.9.007 2.954.006 3.008.007 3.072.006 3.104.006 3.119.007 3.11.008 3.064.012 3.04.014 3.025.013 3.005.012 2.986.009 2.964.006 2.938.004h2.919l2.916-.001 2.882-.006 2.824-.012 2.762-.018 2.692-.024 2.597-.033 2.487-.043L1700 687l2.116-.08 1.96-.094 1.84-.103 1.735-.113 3.231-.246 2.888-.259 2.564-.24 2.341-.255 2.164-.28L1723 685l2.448-.436 2.437-.473 2.17-.443 2.07-.46 2.183-.551 1.895-.508 1.932-.558L1740 681l1.803-.575 1.744-.585 1.69-.6 1.638-.615 3.133-1.281L1753 676l2.93-1.406 2.82-1.469 2.695-1.535L1764 670l2.367-1.621 2.258-1.692 2.188-1.78L1773 663l2.313-2.094 2.312-2.218 2.242-2.31L1782 654l1.945-2.41 1.805-2.465 1.691-2.535L1789 644l1.402-2.621 1.285-2.692 1.188-2.769L1794 633l1.125-3.2 1.063-3.3.917-2.969c.145-.54.288-1.082.437-1.64L1798 620l.546-2.337.548-2.647.502-2.875L1800 609l.206-3.453.059-1.809.036-1.847.021-1.868.007-1.896-.005-1.921-.012-1.956-.005-2.011-.01-2.024-.018-2.006-.029-1.979-.042-1.945-.056-1.873L1800 579l-.223-2.603-.277-2.159-.323-1.928-.364-1.747-.836-3.32L1797 564l-.536-1.89-.566-1.977-.592-1.98-.619-1.966-.645-1.906-.667-1.843-.684-1.778L1792 549l-1.375-2.813-1.438-2.5-1.523-2.351L1786 539l-1.914-2.586-2.024-2.601-2.082-2.508L1778 529l-1.574-1.867-1.551-1.696c-.565-.545-1.13-1.09-1.71-1.652L1771 522l-1.493-1.09-1.671-1.164-1.759-1.182-1.827-1.189-1.86-1.171-1.855-1.134-1.827-1.085L1757 513l-2.754-1.508-2.559-1.242-2.648-1.129L1746 508l-1.935-.656-2.104-.684-2.176-.68-2.223-.668c-.733-.21-1.466-.422-2.222-.64l-2.192-.606-2.141-.566-2.007-.5-3.336-.723-2.976-.527-2.718-.374L1717 501l-2.416-.289-2.581-.252-3.19-.256-1.812-.112L1705 500l-2.257-.054-2.442-.032-2.579-.02-2.713-.008-2.848-.002-2.931.003-2.996.007-2.968.008-2.785.003h-2.778l-5.913.005-14.54.027L1611 500ZM2459 375l1.848.007 1.947.013 2.01.02 2.058.026 2.08.035 2.106.042 2.127.05 2.137.057 2.133.066c.702.025 1.405.05 2.128.074l2.12.083 2.11.09 2.103.097 2.076.106 2.04.113L2492 376l1.876.129 1.812.137 1.771.144 1.736.152 3.41.329 3.332.359 3.308.39 3.275.423 3.24.453 3.24.484 3.283.516 3.291.546 3.283.58 3.268.608 3.235.636 3.218.669 3.21.702L2545 384l3.244.798c1.07.275 2.139.55 3.24.835l3.211.86 3.18.882 3.15.906 3.088.914 3.01.915 2.877.89c.873.27 1.746.54 2.646.82l2.522.797 2.467.809 2.427.824 2.41.85 2.434.896 2.48.953L2590 398l2.887 1.22 3.02 1.315 3.065 1.368 3.09 1.41 3.076 1.433 3.034 1.438 2.978 1.433L2614 409l2.607 1.262c.816.4 1.631.8 2.471 1.21l2.398 1.203 2.336 1.2 2.304 1.214 2.286 1.247 2.277 1.288L2633 419l2.45 1.54 2.491 1.624 2.48 1.657 2.454 1.679 2.41 1.679 2.34 1.657 2.258 1.624L2652 432l1.883 1.376 1.742 1.288 1.657 1.244 1.593 1.217 1.567 1.225 1.538 1.22 1.514 1.216L2665 442l1.518 1.206 1.533 1.224 1.558 1.265 1.579 1.305 1.578 1.333 1.636 1.417 1.719 1.527L2678 453l2.18 2.066 2.324 2.247 2.365 2.32 2.381 2.367 2.356 2.367 2.277 2.32 2.169 2.247L2696 471l1.55 1.723 1.317 1.527 1.182 1.416 1.076 1.334 2.02 2.59L2705 482l1.887 2.254 1.925 2.308 1.961 2.465 1.058 1.387L2713 492l1.372 1.934 1.48 2.132c.503.74 1.007 1.478 1.527 2.239l1.559 2.32 1.56 2.353 1.545 2.366 1.517 2.363L2725 510l1.288 2.121 1.2 2.035 1.15 1.996 1.112 1.973 1.1 1.995 1.076 1.985 1.05 1.967L2734 526l.998 1.846.982 1.83.98 1.86.977 1.902.974 1.954.991 2.053 1.02 2.177L2742 542l1.192 2.706 1.25 2.911 1.272 3.043 1.286 3.153 1.278 3.214.634 1.632.631 1.646.627 1.662.62 1.673.612 1.68.598 1.68.579 1.673.564 1.672.553 1.674.542 1.676.533 1.68.523 1.685.514 1.686.505 1.692.498 1.699.49 1.702.48 1.702.469 1.701.458 1.7.444 1.694L2760 594l.777 3.302.723 3.268.678 3.246.635 3.246.595 3.296.56 3.279.528 3.243.504 3.12.496 2.827.473 2.755.44 2.845.403 2.948.364 3.047.32 3.351.144 1.802.133 1.944.12 2.112L2768 646l.091 2.776.077 3.026.065 3.183.052 3.304.04 3.355.029 3.412.016 3.46.005 3.484-.005 3.483-.016 3.461-.029 3.412-.04 3.355-.052 3.304-.065 3.183-.077 3.026L2768 698l-.107 2.37-.12 2.111-.133 1.944-.144 1.802-.32 3.35-.363 3.048-.405 2.948-.44 2.845-.472 2.755L2765 724l-.504 3.12-.527 3.243-.56 3.28-.597 3.294-.634 3.247-.678 3.246-.723 3.268L2760 750l-.848 3.364-.444 1.695-.458 1.699-.469 1.701-.48 1.702-.49 1.702-.499 1.7-.504 1.69-.514 1.687-.523 1.684-.533 1.68-.542 1.677-.553 1.674-.564 1.672L2752 777l-.598 1.68-.611 1.68-.62 1.673-.628 1.662-.63 1.646-.635 1.631-1.278 3.216-1.288 3.156-1.274 3.047c-.62 1.441-.62 1.441-1.25 2.912L2742 802l-1.063 2.346-1 2.138-.975 2.023-.962 1.93-.968 1.882-.981 1.865-1.002 1.866L2734 818l-1.14 2.157-1.192 2.253-1.226 2.286-1.255 2.304-1.272 2.286-1.29 2.269-1.309 2.249L2724 836l-1.309 2.095-1.316 2.038-1.335 2.009-1.352 1.983-1.37 1.968c-.463.647-.924 1.295-1.4 1.962l-1.432 1.96L2713 852l-1.576 2.056-1.623 2.077-1.643 2.066-1.658 2.051-1.668 2.03-1.652 1.982-1.626 1.923L2700 868l-1.405 1.624-1.337 1.52-1.32 1.477-1.313 1.442-1.32 1.424-1.36 1.443-1.413 1.48L2689 880c-.58.602-1.16 1.205-1.759 1.825l-1.874 1.933-1.918 1.96-1.949 1.97-1.953 1.948-1.922 1.891-1.875 1.816L2674 895l-1.5 1.364-1.375 1.202-2.625 2.184-2.648 2.086-1.378 1.05L2663 904l-1.653 1.263-1.761 1.339-1.826 1.373-1.885 1.4-1.924 1.402-1.959 1.407-1.993 1.413L2648 915l-1.96 1.368-1.97 1.355-2.011 1.356-2.059 1.359-2.113 1.364-2.192 1.378-2.28 1.393L2631 926l-2.626 1.49-2.757 1.518-2.837 1.526-2.905 1.529-2.946 1.518-2.972 1.501-2.99 1.479L2608 938l-2.885 1.373-2.853 1.326-2.849 1.292-2.85 1.259-2.87 1.234-2.884 1.203-2.895 1.172L2585 948l-2.94 1.11c-.978.355-1.956.71-2.962 1.077l-2.98 1.047-2.993 1.016-3.004.984c-.996.315-1.993.63-3.02.953l-3.038.922L2561 956l-3.103.86-3.124.827-3.134.797-3.139.766-3.13.734-3.128.703-3.122.672-3.12.641-3.128.61-3.114.577-3.083.547-3.05.516-3.02.487-2.96.454-2.885.423-2.76.386-2.553.343-2.435.31-2.374.28-2.325.255-2.298.23c-.76.07-1.518.14-2.3.21l-2.317.193L2493 968l-2.582.175-2.664.165c-.885.05-1.77.1-2.682.15l-2.697.135-2.705.115-2.658.1-2.593.085L2472 969l-2.064.07c-.632.02-1.265.04-1.916.059l-1.906.04-1.927.019-1.994-.007-2.146-.033-2.342-.06L2455 969l-3.338-.12-1.818-.073-1.89-.08-1.939-.09-1.985-.1-2.031-.107c-.68-.04-1.36-.078-2.061-.117l-2.074-.126-2.09-.135-2.108-.145-2.123-.157-2.14-.168-2.144-.18-2.139-.193L2423 967c-.686-.075-1.37-.15-2.077-.229-.678-.08-1.355-.16-2.053-.244l-2.04-.257-2.03-.27-2.022-.28-2.016-.293-2.008-.302-2.004-.313-2.006-.32-2.002-.33-1.992-.338-1.98-.347-1.968-.357-1.952-.365-1.935-.374L2391 962l-1.887-.39-1.865-.396-1.847-.404-1.827-.412-1.81-.417-1.791-.425-1.775-.43-1.76-.438-1.751-.446-1.736-.453-1.716-.457-1.696-.46-3.327-.935L2363 955l-3.04-.917-2.937-.923-2.88-.943-2.83-.967-2.795-.992-2.795-1.031-2.816-1.078L2340 947l-3.114-1.267-3.202-1.335-3.217-1.37-1.61-.698-1.607-.705-3.19-1.426-3.126-1.426-3.048-1.415L2315 936l-2.593-1.226-2.434-1.172-2.36-1.173-2.3-1.179-2.272-1.2-2.283-1.257-2.316-1.327L2296 926l-2.724-1.72-2.846-1.854-2.872-1.913-2.87-1.95-2.823-1.951c-.905-.636-1.81-1.273-2.744-1.928l-2.649-1.892L2274 911l-2.171-1.601-1.981-1.489-1.854-1.42-1.744-1.365-1.678-1.337-1.6-1.3-1.518-1.259L2260 900l-1.403-1.21c-.446-.39-.891-.782-1.35-1.185l-2.56-2.293-2.382-2.195L2250 891l-2.367-2.055-2.32-2.008-2.239-1.988L2241 883l-1.73-1.855-1.645-1.895-1.707-2.027L2234 875l-2.387-2.504-1.309-1.366-1.367-1.442-1.4-1.51-1.451-1.604-1.509-1.713L2223 863l-1.67-2.076-1.728-2.217-1.759-2.313-1.78-2.394-1.79-2.447-1.785-2.49-1.767-2.528L2209 844l-1.631-2.504-1.576-2.496-1.538-2.497-1.505-2.503-1.488-2.529-1.457-2.522-1.423-2.502L2197 824l-1.327-2.326-1.29-2.28-1.265-2.283-1.243-2.298-1.223-2.332-1.215-2.395-1.21-2.474L2187 805l-1.273-2.847-1.29-2.989-1.285-3.078-1.277-3.149-1.255-3.184-1.233-3.222-1.21-3.258L2177 780l-1.134-3.266-1.096-3.265-1.06-3.267-1.023-3.264-.989-3.267-.948-3.253-.902-3.229L2169 754l-.777-3.123a23469 23469 0 0 1-.723-3.076l-.677-3.044-.635-3.007-.598-2.964-.563-2.938-.527-2.918-.5-2.93-.48-3.004-.454-3-.424-2.958-.392-2.85-.35-2.62-.322-2.525-.276-2.358L2161 708l-.267-2.517-.254-2.62-.261-2.92L2160 697l-.115-2.678-.062-2.637-.038-2.712-.023-2.825-.03-3.045-.024-3.173-.014-3.243-.006-3.312-.006-3.37.001-3.398.014-3.394.026-3.381.04-3.366.058-3.292.077-3.183L2160 647l.137-2.663.163-2.46.183-2.331.2-2.222.215-2.158.23-2.091.242-2.025.255-1.987.264-1.988.275-1.964.284-1.932.294-1.898.304-1.856.312-1.827c.106-.596.21-1.192.32-1.806L2164 614l.323-1.792.326-1.782.333-1.768.338-1.752.346-1.735.354-1.718c.24-1.12.482-2.238.73-3.39l.767-3.316.8-3.27.828-3.242L2170 587l.875-3.267.902-3.272.938-3.268.972-3.255 1.004-3.225 1.047-3.22 1.096-3.228L2178 561l.625-1.672.646-1.686.661-1.692.673-1.692.682-1.685.689-1.678.697-1.671.702-1.662.707-1.65.71-1.635.71-1.614.709-1.593 1.413-3.112L2189 535l1.29-2.708 1.25-2.55 1.233-2.446 1.227-2.359 1.234-2.303 1.243-2.251 1.25-2.202L2199 516l1.312-2.196 1.336-2.187 1.356-2.165 1.371-2.14 1.379-2.102 1.394-2.081 1.414-2.066L2210 499l1.478-2.083 1.499-2.077 1.505-2.054 1.518-2.036 1.543-2.028 1.531-1.984 1.506-1.927L2222 483l1.229-1.588 1.166-1.494 1.19-1.488 1.227-1.493 1.277-1.508 1.411-1.613 1.586-1.757L2233 470l1.194-1.26 1.306-1.365 1.378-1.431 1.434-1.48c.483-.493.965-.987 1.461-1.496l1.49-1.517 1.518-1.535 1.532-1.541 1.536-1.537 1.534-1.523 1.518-1.498 1.501-1.47 1.487-1.443 1.443-1.388 1.383-1.315L2256 447l2.141-1.918 1.863-1.586 1.733-1.41 1.638-1.274 1.623-1.222 1.623-1.188 1.636-1.164L2270 436l1.989-1.453 2.109-1.543 2.154-1.563 2.186-1.566 2.177-1.531 2.162-1.496 2.144-1.46L2287 424l1.942-1.258 1.874-1.183 1.847-1.14 1.837-1.106 1.866-1.097 1.876-1.083 1.882-1.07c.62-.35 1.238-.701 1.876-1.063l1.837-1.063 1.858-1.07 1.928-1.083 2.002-1.096 2.074-1.1 2.219-1.135 2.396-1.182L2319 406l3.167-1.436 1.696-.751 1.75-.766 1.784-.77 1.818-.777 1.85-.781 1.872-.781 1.887-.78 1.897-.773 1.9-.765 1.902-.757 1.906-.747 1.89-.73 1.866-.71L2348 394l1.726-.626 1.673-.591 3.265-1.115 3.213-1.05 3.186-.993 3.212-.96 3.225-.923 3.234-.884L2374 386l3.32-.85 3.367-.83 1.703-.404 1.714-.396 1.726-.39 1.733-.38 1.732-.37 1.743-.363 1.763-.354 1.781-.347 1.8-.339 1.831-.332 1.867-.325 1.92-.32 2.006-.316 2.058-.31 2.088-.302 2.11-.295 2.113-.285 2.12-.277 2.127-.268 2.128-.26c.703-.082 1.407-.164 2.131-.25l2.121-.24c.692-.075 1.384-.15 2.098-.229l2.072-.218 2.049-.207c.66-.065 1.32-.13 2-.195l1.938-.182L2435 376l3.264-.277 3.002-.223 2.9-.177 2.834-.135 2.832-.098 2.898-.063 3.002-.027H2459Zm-15 124-3.452.202-2.818.259-2.51.308-2.282.356-2.246.401-2.208.447-2.177.492L2424 502l-2.658.57-2.826.614-2.895.664-2.934.714-2.896.76-2.904.819-2.929.884L2401 508l-3.017 1.107-3.026 1.19-2.997 1.238-2.96 1.277-2.915 1.303-2.827 1.31-2.718 1.308L2378 518l-2.251 1.17-2.07 1.123-1.951 1.108-1.853 1.099-1.792 1.11-1.735 1.117-1.683 1.126L2363 527l-1.692 1.187-1.687 1.211-1.666 1.23-1.642 1.247-1.604 1.254-1.58 1.27-1.566 1.288L2350 537l-1.583 1.353-1.577 1.374-1.557 1.382-1.533 1.391-1.508 1.4-1.469 1.393-1.422 1.376L2338 548l-2.398 2.426-2.227 2.386-2.164 2.481L2329 558l-1.21 1.542c-.413.539-.826 1.078-1.25 1.634l-1.267 1.697-1.273 1.752-1.263 1.785-1.257 1.824-1.248 1.866L2319 572l-1.205 1.932-1.182 1.959-1.16 1.98-1.14 2.004-1.123 2.03-1.096 2.04-1.067 2.04L2310 588l-.973 1.944-.933 1.923-.905 1.933-.876 1.95-.854 1.977-.834 2.023-.816 2.078L2303 604l-.816 2.328-.809 2.422-.792 2.48-.77 2.52-.744 2.522-.717 2.544-.69 2.571c-.22.862-.437 1.725-.662 2.613l-.63 2.695-.597 2.707-.561 2.683-.524 2.602-.484 2.427-.442 2.335-.377 2.01L2293 644l-.262 1.99-.273 2.264-.256 2.377L2292 653l-.107 2.124-.054 2.069-.029 2.11-.013 2.185-.021 2.354-.017 2.446-.007 2.489-.002 2.535-.002 2.581.003 2.593.012 2.574.022 2.545.033 2.518.046 2.433.06 2.319c.024.701.05 1.402.076 2.125l.218 3.4.278 2.838.324 2.552.367 2.335.403 2.284.437 2.22.473 2.157.5 2.214.52 2.437.546 2.528.577 2.546.607 2.552.643 2.51.673 2.49.704 2.48.73 2.457.75 2.418.777 2.394.813 2.383.847 2.367.879 2.35.922 2.35.971 2.353L2307 750l1.146 2.467 1.21 2.49 1.245 2.472 1.274 2.446 1.294 2.409 1.296 2.341 1.288 2.258L2317 769l1.149 1.883 1.105 1.742 1.094 1.66 1.09 1.59 1.099 1.55 1.12 1.524 1.144 1.51L2326 782c.43.543.858 1.087 1.3 1.647l1.356 1.685 1.38 1.683 1.401 1.673 1.41 1.643 1.407 1.606 1.395 1.567L2337 795l1.253 1.379 1.212 1.308 2.41 2.5 2.492 2.422 1.292 1.194L2347 805l1.411 1.22 1.472 1.233 1.53 1.24 1.587 1.245 1.636 1.24 1.704 1.252 1.78 1.268L2360 815l2.016 1.364 2.113 1.394 2.185 1.402 2.249 1.403 2.297 1.39 2.343 1.375 2.385 1.354L2378 826l2.42 1.264 2.44 1.22 2.465 1.183 2.488 1.145 2.505 1.113 2.53 1.071 2.555 1.027L2398 835l2.671.918 2.7.867 2.697.819 2.682.771c.873.24 1.747.48 2.646.729l2.6.681 2.543.633L2419 841l2.348.523 2.25.473 2.167.43 2.048.386 1.864.34 1.78.305 1.76.279L2435 844l1.881.27 1.959.261 2.032.244L2443 845l2.243.204 2.366.183 2.492.16 2.649.14 2.856.134 3.011.105 3.132.065L2465 846l3.368-.073 3.452-.134 1.748-.087 1.76-.099 1.77-.11 1.777-.122 1.783-.129 1.785-.139 1.783-.15 1.778-.164 1.772-.176 1.76-.19L2493 844l3.343-.51 3.247-.564 3.154-.603 3.068-.635 3.01-.666 2.893-.678 2.75-.684L2517 839l2.196-.59 1.995-.566 1.886-.572 1.798-.585 1.751-.611 1.745-.646 1.761-.685L2532 834l2.114-.839 2.234-.903 2.28-.952 2.31-.994 2.29-1.023 2.28-1.059 2.266-1.096L2550 826l2.147-1.177 2.095-1.21 2.055-1.234 2.015-1.254 1.987-1.27 1.947-1.28 1.902-1.288L2566 816l1.793-1.275 1.742-1.268 1.694-1.263c.543-.414 1.086-.83 1.646-1.256l1.601-1.253c.514-.41 1.027-.82 1.555-1.244l1.508-1.23L2579 806l1.414-1.184 1.367-1.164 2.594-2.277 2.43-2.242L2589 797l1.82-1.883 1.68-1.867 1.664-1.98L2596 789l1.124-1.374 1.212-1.49 1.254-1.566 1.285-1.633 1.289-1.675 1.29-1.719 1.286-1.76L2606 776l1.197-1.779 1.162-1.795 1.142-1.822 1.124-1.854 1.116-1.896 1.103-1.928 1.086-1.955L2615 761l1.055-1.967 1.039-1.99 1.024-2.032 1.007-2.073.988-2.115.973-2.182.96-2.26L2623 744l.962-2.576.952-2.69.93-2.748.906-2.798.876-2.832.839-2.829.796-2.809L2630 722l.657-2.511.597-2.423.55-2.407.508-2.409.471-2.442.436-2.503.402-2.58L2634 702l.371-2.983.348-3.134.314-3.222.28-3.286.24-3.304.197-3.333.152-3.36L2636 676l.027-3.39-.027-3.38-.072-3.35-.115-3.317-.155-3.295-.19-3.217-.222-3.115L2635 650l-.254-2.627-.277-2.455-.311-2.368-.345-2.3-.38-2.265-.425-2.27-.472-2.298L2632 631l-.63-2.687-.69-2.81-.73-2.84-.762-2.85-.791-2.823-.803-2.763-.809-2.69L2626 609l-.715-2.255-.691-2.097-.698-2.013-.709-1.947c-.24-.632-.481-1.264-.73-1.914l-.766-1.903-.808-1.903L2620 593l-1.012-2.136-1.086-2.204-1.123-2.21-1.154-2.2-1.167-2.164-1.169-2.11-1.163-2.045L2611 576l-1.04-1.735-1-1.617-.982-1.54-.978-1.483-.998-1.459-1.002-1.424-2-2.742-1.938-2.617-2.062-2.633-1.095-1.326c-.39-.454-.778-.909-1.178-1.377l-1.28-1.451L2594 553l-1.72-1.861c-.62-.66-1.242-1.32-1.882-1.998l-1.975-2.054-2.048-2.087-2.083-2.08-2.104-2.045-2.114-1.996L2578 537l-1.965-1.66-1.91-1.528-1.884-1.442-1.866-1.37-1.874-1.333-1.86-1.28-1.838-1.221L2563 526l-1.74-1.107-1.713-1.061-1.71-1.026-1.712-.994-1.729-.962-1.755-.948c-.591-.31-1.183-.621-1.791-.942L2549 518l-1.943-1.019-2.01-1.04-2.062-1.037-2.11-1.029-2.143-1.008-2.189-.984-2.24-.96L2532 510l-2.384-.868-2.44-.827-2.481-.794-2.508-.761-2.507-.732-2.528-.702-2.55-.671L2512 504l-2.707-.625-2.727-.598-2.698-.563-2.618-.526-2.452-.484-2.345-.442-2.026-.377L2492 500l-1.748-.262-1.979-.273-2.103-.256L2484 499l-2.113-.107-2.15-.054-2.231-.029-2.334-.013-2.493-.021-2.59-.018-2.644-.006-2.695-.002-2.735-.001-2.743.004c-.898.005-1.796.01-2.72.013l-2.689.023-2.658.034-2.562.045-2.432.058L2444 499ZM1426 5h1262v140H1426V5ZM821 0h374v109H949v118h224v108l-223 1-1 124h255v110H821V0ZM78 0h267l26 3 7.707 1.36 3.112.68 2.993.71 3.364.776 3.402.81 3.276.827L398 9l2.936.83 2.798.834 2.705.848 2.623.863 2.569.882 2.51.9 2.45.913L419 16l2.385.945c.775.317 1.55.635 2.35.961l2.309.977 2.269.992 2.223 1.008 2.187 1.023 2.152 1.04c.702.347 1.403.695 2.125 1.054l2.105 1.07 2.079 1.086 2.048 1.102 2.018 1.117 1.982 1.128 1.952 1.145 1.921 1.164L453 33l1.875 1.228 1.848 1.249 1.811 1.257L460.313 38l1.748 1.276 1.705 1.267 1.654 1.251L467 43l1.463 1.108 1.396 1.068 2.704 2.136 2.667 2.239 1.357 1.186L478 52l1.526 1.384 1.587 1.471 1.62 1.54L484.375 58l1.644 1.653 1.653 1.714 1.662 1.78L491 65l1.666 1.938 1.662 2.007 1.654 2.065 1.643 2.115 1.627 2.152 1.607 2.196 1.584 2.238L504 82l1.525 2.355 1.49 2.391c.48.793.958 1.587 1.45 2.404l1.41 2.412 1.372 2.419 1.32 2.394 1.258 2.355L515 101l1.054 2.105.973 2.02.917 1.98.869 1.957.833 1.963.803 1.971.779 1.984L522 117l.792 2.086.79 2.137.78 2.182.763 2.22.739 2.236.722 2.291.71 2.363L528 135l.712 2.7.702 2.804.68 2.835.656 2.849.628 2.836.59 2.777.548 2.69L533 157l.39 2.177.329 1.991.284 1.892.247 1.815.22 1.781.194 1.766.173 1.76L535 172l.17 1.975.166 2.04.151 2.08.138 2.03.122 1.808.105 1.825.084 1.96L536 188c.015.97.03 1.94.047 2.94l.02 3.26-.013 3.396L536 201l-.108 3.154-.154 3.108-.194 3.159-.231 3.267-.128 1.735-.136 1.78-.146 1.798-.157 1.811-.168 1.814-.18 1.808-.192 1.797L534 228l-.457 3.387-.508 3.3-.557 3.266-.603 3.234-.642 3.231-.69 3.215-.74 3.188L529 254l-.884 3.194-.94 3.173-.978 3.124-1.01 3.072-1.04 3.018-1.054 2.93-1.059 2.826L521 278l-.965 2.4-.941 2.245-.948 2.153-.958 2.077-.979 2.024-1.014 2.007-1.057 2.008L513 295c-.422.755-.844 1.51-1.278 2.29l-1.355 2.366-1.39 2.367-1.414 2.352-1.426 2.305-1.414 2.226-1.394 2.133L502 313l-1.192 1.664-1.124 1.492-2.184 2.719-2.2 2.555L493 324l-1.264 1.442-1.318 1.503-1.35 1.522-1.38 1.533-1.404 1.521c-.47.498-.938.997-1.42 1.51l-1.436 1.5L482 336l-1.385 1.406-1.385 1.375-1.41 1.364-1.445 1.355-1.485 1.353-1.546 1.362-1.617 1.374L470 347l-1.898 1.485-2.008 1.519-2.082 1.53-2.137 1.529-2.152 1.51-2.192 1.493-2.234 1.477L453 359l-2.406 1.437-2.438 1.403-2.421 1.36-2.36 1.3-2.223 1.203-2.129 1.14-2.032 1.083L435 369l-2.077 1.168-1.946 1.113L428 373l1.29 2.11.868 1.419.963 1.576c.33.543.662 1.085 1.003 1.644a22545.925 22545.925 0 0 1 2.168 3.557l1.146 1.882 1.153 1.895 1.17 1.925c.393.645.785 1.291 1.188 1.956l1.203 1.985 1.224 2.023 1.225 2.03 1.215 2.02L445 401l1.117 1.885 1.083 1.836 1.065 1.814 1.051 1.797a39663.736 39663.736 0 0 0 2.096 3.587 196342.633 196342.633 0 0 0 2.088 3.581l1.058 1.815 1.063 1.822 1.064 1.823 1.065 1.821c.35.6.701 1.199 1.063 1.816l1.062 1.81 1.063 1.802L462 430c.35.585.701 1.17 1.063 1.771l1.062 1.76 1.063 1.753 1.062 1.747 1.063 1.746 1.062 1.743 1.063 1.74L470.5 444l1.063 1.74c.35.574.7 1.149 1.062 1.74.35.576.701 1.15 1.063 1.743l1.062 1.746 1.063 1.747 1.062 1.753 1.063 1.76L479 458l1.063 1.791 1.062 1.803 1.063 1.81 1.062 1.815 1.063 1.817 1.062 1.82 1.063 1.821 1.062 1.823 1.063 1.823 1.062 1.822 1.063 1.82 1.062 1.816c.35.6.701 1.198 1.063 1.815l1.062 1.81 1.063 1.803L496 487c.35.585.701 1.17 1.063 1.771l1.062 1.76 1.063 1.753 1.062 1.747 1.063 1.746 1.062 1.743 1.063 1.741L504.5 501l1.06 1.737 1.06 1.737 1.061 1.74 1.061 1.743 1.061 1.745 1.063 1.754 1.065 1.763L513 515l1.077 1.812 1.08 1.83 1.082 1.838 1.081 1.844 1.082 1.846 1.079 1.845 1.075 1.841 1.069 1.832 1.055 1.809 1.048 1.797 1.046 1.792 1.042 1.785 1.039 1.777 1.04 1.777 1.045 1.78L530 544l1.095 1.839 1.108 1.849 1.105 1.84 1.094 1.82 1.07 1.779c.347.575.694 1.15 1.05 1.743l1.03 1.707 1.01 1.673 1.001 1.651.969 1.598 1.784 2.954 1.577 2.599L545 569v1H395l-10-17-3.95-6.871-1.855-3.256-.928-1.633-.954-1.678-1.016-1.781-1.043-1.83-1.052-1.845c-.35-.611-.698-1.222-1.057-1.852l-1.052-1.843-1.044-1.828-1.035-1.812L369 525l-.975-1.697a385256.43 385256.43 0 0 1-1.894-3.287l-.932-1.614-.929-1.608-.925-1.602-.923-1.596L361.5 512l-.927-1.604a42634.108 42634.108 0 0 1-1.861-3.223l-.935-1.618-.935-1.621-.94-1.63-.946-1.643L354 499l-.971-1.693-.982-1.712-.987-1.726-.994-1.736-.996-1.743a42765.561 42765.561 0 0 0-2.003-3.506l-1.005-1.759-1.004-1.759-1.005-1.76-1.006-1.763-1.008-1.765-1.009-1.768-1.01-1.769-1.01-1.77L338 471l-1.01-1.77-1.01-1.771-1.01-1.77-1.01-1.767-1.007-1.766a45569.15 45569.15 0 0 0-3.015-5.281l-1.002-1.754-1-1.75-.996-1.745-.995-1.74-.991-1.733a50800.657 50800.657 0 0 1-1.973-3.444L322 443l-.977-1.697a30957.12 30957.12 0 0 1-1.94-3.362l-.966-1.671-.973-1.684-.964-1.67-.952-1.646-.916-1.582-1.65-2.847-1.674-2.892L307 417l-13-23-86-1v177H78V0Zm128 111v172l55.75.188 17.483.082 7.146.014 3.365.002 3.365.007 1.765.01 1.793.014 1.797.012 1.794.01 1.778.007 1.762.002 3.467-.007 3.331-.026 3.228-.058 3.136-.097L320 283l2.947-.264 2.838-.327 2.73-.369 2.576-.386 2.338-.36 2.22-.38 2.148-.417L340 280l2.494-.661 2.504-.718 2.255-.673 2.185-.698 2.362-.827 2.071-.759 2.113-.827L358 274l1.88-.83 1.78-.834 1.705-.848 1.635-.863 1.583-.885 1.526-.9L371 267l2.703-1.871 2.547-1.942 2.41-2.035L381 259l2.371-2.309 2.317-2.441 2.218-2.586L390 249l1.906-2.602 1.781-2.773 1.676-3.004.815-1.688L397 237l.865-2.375.865-2.59.84-2.668.805-2.68.76-2.57.7-2.48.634-2.427L403 217l.64-3.316.203-1.684.157-2 .153-2.733.12-3.119.07-3.298.032-3.475.01-1.796v-1.818l-.015-1.826-.03-1.83-.048-1.829-.07-1.806L404 183l-.382-3.083-.49-2.866-.562-2.737-.628-2.626-.674-2.582-.717-2.489-.76-2.372L399 162l-.795-2.089-.814-1.966-.84-1.863-.863-1.77-.89-1.687-.911-1.61-.932-1.536L392 148l-1.98-2.828-2.02-2.61-2.055-2.398L384 138l-1.57-1.852-1.555-1.71-1.727-1.657L377 131l-1.429-1.074-1.594-1.145-1.696-1.167-1.781-1.177-1.832-1.16-1.871-1.136-1.904-1.104L363 122l-1.814-.92-1.795-.846-1.813-.796-1.828-.75-1.846-.72-1.892-.687-1.948-.652L348 116l-2.287-.621-2.381-.598-2.403-.565-2.366-.528-2.222-.484-2.15-.442-1.868-.377A39657 39657 0 0 1 330 112l-3.423-.517-2.167-.266L322 111l-2.582-.09-2.784-.03-2.985-.004-3.206.01h-7.134a40932.035 40932.035 0 0 0-3.748.008l-1.877.005-1.84.003-3.452.003h-3.434l-7.327.005-18.131.028L206 111Z"/></g></svg>